<?xml version="1.0" standalone="no"?>
<!DOCTYPE svg PUBLIC "-//W3C//DTD SVG 20010904//EN"
 "http://www.w3.org/TR/2001/REC-SVG-20010904/DTD/svg10.dtd">
<svg version="1.0" xmlns="http://www.w3.org/2000/svg"
 width="300.000000pt" height="300.000000pt" viewBox="0 0 300.000000 300.000000"
 preserveAspectRatio="xMidYMid meet">
<metadata>
Created by potrace 1.10, written by Peter Selinger 2001-2011
</metadata>
<g transform="translate(0.000000,300.000000) scale(0.050000,-0.050000)"
fill="#000000" stroke="none">
<path d="M1574 3785 c-5 -8 -15 -44 -23 -79 -17 -78 -111 -110 -169 -58 -51
46 -87 40 -151 -27 l-56 -58 43 -61 c52 -72 16 -182 -59 -182 -96 0 -105 -204
-10 -220 89 -15 123 -95 67 -155 l-43 -45 57 -60 c61 -64 107 -75 145 -37 40
40 121 -11 140 -87 27 -101 192 -102 201 -1 7 73 84 110 142 68 66 -48 86 -47
143 8 68 65 71 82 26 132 -47 53 7 132 98 141 121 11 103 215 -19 216 -68 0
-86 126 -28 188 l43 46 -45 58 c-64 84 -78 89 -137 54 -83 -49 -167 -13 -176
75 -3 38 -17 75 -30 84 -30 19 -148 19 -159 0z m182 -376 c99 -70 130 -208 70
-311 -95 -160 -326 -139 -399 36 -82 196 156 396 329 275z"/>
<path d="M686 3258 c-141 -143 -259 -276 -262 -295 -7 -43 794 -843 845 -843
40 0 411 353 411 392 0 90 -186 62 -302 -46 l-100 -93 -299 298 -299 298 200
201 c213 214 226 239 154 307 -70 65 -73 63 -348 -219z"/>
<path d="M3906 3280 c-163 -67 -113 -620 56 -620 139 0 184 90 175 348 -9 241
-86 332 -231 272z m110 -104 c56 -56 27 -416 -34 -416 -64 0 -82 44 -82 205 0
206 43 284 116 211z"/>
<path d="M4700 3286 c-90 -33 -100 -63 -100 -308 0 -230 1 -236 53 -277 99
-78 247 -18 247 100 0 76 -93 89 -104 14 -7 -51 -73 -72 -98 -32 -29 45 -21
345 9 386 37 50 93 27 93 -38 0 -41 10 -51 50 -51 88 0 65 141 -31 191 -61 31
-72 32 -119 15z"/>
<path d="M5400 3286 c-140 -52 -139 -193 1 -331 110 -108 127 -180 45 -191
-34 -5 -48 6 -57 45 -13 50 -74 71 -98 33 -40 -64 63 -182 159 -182 169 0 199
194 50 334 -114 107 -143 215 -55 202 28 -4 47 -22 51 -48 6 -42 104 -48 104
-7 0 44 -49 117 -93 137 -53 24 -62 24 -107 8z"/>
<path d="M2384 2975 l6 -305 108 1 c168 2 202 53 202 311 0 254 -31 298 -210
298 l-111 0 5 -305z m192 201 c25 -25 34 -326 12 -384 -7 -18 -34 -32 -60 -32
-48 0 -48 1 -48 220 0 229 21 271 96 196z"/>
<path d="M2780 2969 l0 -311 125 6 c159 8 211 96 56 96 l-81 0 0 90 c0 87 2
90 60 90 47 0 60 9 60 40 0 31 -13 40 -60 40 -58 0 -60 3 -60 92 l0 91 75 -6
c65 -6 76 -1 81 38 6 43 0 45 -125 45 l-131 0 0 -311z"/>
<path d="M3088 3249 c6 -17 35 -157 64 -310 l53 -279 58 0 c31 0 57 2 57 5 0
15 99 513 110 560 13 49 9 55 -36 55 -60 0 -63 -7 -96 -255 -30 -218 -46 -207
-79 58 l-25 197 -59 0 c-45 0 -56 -7 -47 -31z"/>
<path d="M3500 2970 l0 -310 50 0 c49 0 50 4 50 140 l0 140 70 0 c57 0 70 8
70 40 0 32 -13 40 -70 40 -70 0 -70 0 -70 92 l0 91 75 -6 c65 -6 76 -1 81 38
6 43 0 45 -125 45 l-131 0 0 -310z"/>
<path d="M4220 2969 l0 -312 45 7 c41 5 45 15 40 121 -5 99 0 115 31 115 27 0
43 -28 65 -115 23 -93 38 -116 74 -121 54 -8 56 15 12 145 -30 89 -30 100 0
152 96 162 15 319 -163 319 l-104 0 0 -311z m176 214 c54 -34 22 -192 -40
-199 -53 -6 -55 -4 -53 90 2 129 23 153 93 109z"/>
<path d="M4980 2969 l0 -311 125 6 c167 8 209 96 46 96 l-91 0 0 90 c0 90 0
90 70 90 57 0 70 8 70 40 0 33 -13 40 -71 40 l-71 0 6 85 c6 85 6 85 86 85 68
0 81 7 86 45 6 43 0 45 -125 45 l-131 0 0 -311z"/>
</g>
</svg>
